<svg xmlns="http://www.w3.org/2000/svg" viewBox="0 0 1020 692" font-family="Vazirmatn, sans-serif">
<style>text{font-size:13px;fill:#3E4959}.hub{font-size:13.5px;font-weight:700;fill:#141A24}.key{font-size:12.5px;fill:#5C6B84}</style>
<text class="key" x="1006" y="40" text-anchor="end">هر دایره یک فایل است؛ هرچه فایل خط بیشتری داشته باشد دایره‌اش بزرگ‌تر است، و هرچه به مرکزِ نوارش نزدیک‌تر باشد فایل‌های بیشتری آن را import می‌کنند.</text>
<rect x="0" y="70" width="1020" height="74" fill="#FFFFFF"/>
<text x="1006" y="112" text-anchor="end" font-weight="700" fill="#2F6BE0">Proxy</text>
<text x="1006" y="128" text-anchor="end" font-size="11" fill="#8B97A8">۱ فایل</text>
<rect x="0" y="144" width="1020" height="74" fill="#F7F9FC"/>
<text x="1006" y="186" text-anchor="end" font-weight="700" fill="#B57209">صفحه‌ها</text>
<text x="1006" y="202" text-anchor="end" font-size="11" fill="#8B97A8">۶ از ۳۴ فایلِ متصل</text>
<rect x="0" y="218" width="1020" height="74" fill="#FFFFFF"/>
<text x="1006" y="260" text-anchor="end" font-weight="700" fill="#0E8F5D">مؤلفه‌های رابط</text>
<text x="1006" y="276" text-anchor="end" font-size="11" fill="#8B97A8">۷ از ۴۲ فایلِ متصل</text>
<rect x="0" y="292" width="1020" height="74" fill="#F7F9FC"/>
<text x="1006" y="334" text-anchor="end" font-weight="700" fill="#6247C4">API routes</text>
<text x="1006" y="350" text-anchor="end" font-size="11" fill="#8B97A8">۶ از ۳۵ فایلِ متصل</text>
<rect x="0" y="366" width="1020" height="74" fill="#FFFFFF"/>
<text x="1006" y="408" text-anchor="end" font-weight="700" fill="#BE185D">احراز هویت</text>
<text x="1006" y="424" text-anchor="end" font-size="11" fill="#8B97A8">۶ از ۷ فایلِ متصل</text>
<rect x="0" y="440" width="1020" height="74" fill="#F7F9FC"/>
<text x="1006" y="482" text-anchor="end" font-weight="700" fill="#C2410C">ابزارهای مشترک</text>
<text x="1006" y="498" text-anchor="end" font-size="11" fill="#8B97A8">۶ از ۲۷ فایلِ متصل</text>
<rect x="0" y="514" width="1020" height="74" fill="#FFFFFF"/>
<text x="1006" y="556" text-anchor="end" font-weight="700" fill="#0E7490">Data Access Layer</text>
<text x="1006" y="572" text-anchor="end" font-size="11" fill="#8B97A8">۸ از ۱۸ فایلِ متصل</text>
<rect x="0" y="588" width="1020" height="74" fill="#F7F9FC"/>
<text x="1006" y="630" text-anchor="end" font-weight="700" fill="#4D7C0F">طرح‌واره</text>
<text x="1006" y="646" text-anchor="end" font-size="11" fill="#8B97A8">۱ فایل</text>
<path d="M450,107 C450,255 690,255 690,403" fill="none" stroke="#AAB8CC" stroke-width="0.9" opacity="0.55"/>
<path d="M570,181 C570,366 263,366 263,551" fill="none" stroke="#AAB8CC" stroke-width="0.9" opacity="0.55"/>
<path d="M570,181 C570,329 450,329 450,477" fill="none" stroke="#AAB8CC" stroke-width="0.9" opacity="0.55"/>
<path d="M450,181 C450,329 330,329 330,477" fill="none" stroke="#AAB8CC" stroke-width="0.9" opacity="0.55"/>
<path d="M450,181 C450,329 210,329 210,477" fill="none" stroke="#AAB8CC" stroke-width="0.9" opacity="0.55"/>
<path d="M450,181 C450,329 450,329 450,477" fill="none" stroke="#AAB8CC" stroke-width="0.9" opacity="0.55"/>
<path d="M570,329 C570,440 450,440 450,551" fill="none" stroke="#AAB8CC" stroke-width="0.9" opacity="0.55"/>
<path d="M570,329 C570,403 330,403 330,477" fill="none" stroke="#AAB8CC" stroke-width="0.9" opacity="0.55"/>
<path d="M570,329 C570,403 570,403 570,477" fill="none" stroke="#AAB8CC" stroke-width="0.9" opacity="0.55"/>
<path d="M570,329 C570,366 450,366 450,403" fill="none" stroke="#AAB8CC" stroke-width="0.9" opacity="0.55"/>
<path d="M570,329 C570,403 450,403 450,477" fill="none" stroke="#AAB8CC" stroke-width="0.9" opacity="0.55"/>
<path d="M690,329 C690,366 330,366 330,403" fill="none" stroke="#AAB8CC" stroke-width="0.9" opacity="0.55"/>
<path d="M690,329 C690,440 357,440 357,551" fill="none" stroke="#AAB8CC" stroke-width="0.9" opacity="0.55"/>
<path d="M690,329 C690,403 570,403 570,477" fill="none" stroke="#AAB8CC" stroke-width="0.9" opacity="0.55"/>
<path d="M690,329 C690,366 450,366 450,403" fill="none" stroke="#AAB8CC" stroke-width="0.9" opacity="0.55"/>
<path d="M210,329 C210,366 570,366 570,403" fill="none" stroke="#AAB8CC" stroke-width="0.9" opacity="0.55"/>
<path d="M210,329 C210,366 690,366 690,403" fill="none" stroke="#AAB8CC" stroke-width="0.9" opacity="0.55"/>
<path d="M210,329 C210,440 357,440 357,551" fill="none" stroke="#AAB8CC" stroke-width="0.9" opacity="0.55"/>
<path d="M210,329 C210,403 570,403 570,477" fill="none" stroke="#AAB8CC" stroke-width="0.9" opacity="0.55"/>
<path d="M210,329 C210,366 450,366 450,403" fill="none" stroke="#AAB8CC" stroke-width="0.9" opacity="0.55"/>
<path d="M450,329 C450,366 330,366 330,403" fill="none" stroke="#AAB8CC" stroke-width="0.9" opacity="0.55"/>
<path d="M450,329 C450,366 570,366 570,403" fill="none" stroke="#AAB8CC" stroke-width="0.9" opacity="0.55"/>
<path d="M450,329 C450,366 210,366 210,403" fill="none" stroke="#AAB8CC" stroke-width="0.9" opacity="0.55"/>
<path d="M450,329 C450,440 357,440 357,551" fill="none" stroke="#AAB8CC" stroke-width="0.9" opacity="0.55"/>
<path d="M450,329 C450,403 570,403 570,477" fill="none" stroke="#AAB8CC" stroke-width="0.9" opacity="0.55"/>
<path d="M450,329 C450,366 450,366 450,403" fill="none" stroke="#AAB8CC" stroke-width="0.9" opacity="0.55"/>
<path d="M330,329 C330,440 450,440 450,551" fill="none" stroke="#AAB8CC" stroke-width="0.9" opacity="0.55"/>
<path d="M330,329 C330,403 570,403 570,477" fill="none" stroke="#AAB8CC" stroke-width="0.9" opacity="0.55"/>
<path d="M330,329 C330,366 450,366 450,403" fill="none" stroke="#AAB8CC" stroke-width="0.9" opacity="0.55"/>
<path d="M330,329 C330,403 450,403 450,477" fill="none" stroke="#AAB8CC" stroke-width="0.9" opacity="0.55"/>
<path d="M810,329 C810,440 450,440 450,551" fill="none" stroke="#AAB8CC" stroke-width="0.9" opacity="0.55"/>
<path d="M810,329 C810,403 570,403 570,477" fill="none" stroke="#AAB8CC" stroke-width="0.9" opacity="0.55"/>
<path d="M810,329 C810,366 450,366 450,403" fill="none" stroke="#AAB8CC" stroke-width="0.9" opacity="0.55"/>
<path d="M810,329 C810,403 450,403 450,477" fill="none" stroke="#AAB8CC" stroke-width="0.9" opacity="0.55"/>
<path d="M210,181 C210,218 345,218 345,255" fill="none" stroke="#AAB8CC" stroke-width="0.9" opacity="0.55"/>
<path d="M210,181 C210,292 570,292 570,403" fill="none" stroke="#AAB8CC" stroke-width="0.9" opacity="0.55"/>
<path d="M210,181 C210,366 450,366 450,551" fill="none" stroke="#AAB8CC" stroke-width="0.9" opacity="0.55"/>
<path d="M210,181 C210,329 450,329 450,477" fill="none" stroke="#AAB8CC" stroke-width="0.9" opacity="0.55"/>
<path d="M450,625 C450,551 810,551 810,477" fill="none" stroke="#AAB8CC" stroke-width="0.9" opacity="0.55"/>
<path d="M555,255 C555,403 450,403 450,551" fill="none" stroke="#AAB8CC" stroke-width="0.9" opacity="0.55"/>
<path d="M555,255 C555,366 330,366 330,477" fill="none" stroke="#AAB8CC" stroke-width="0.9" opacity="0.55"/>
<path d="M660,255 C660,255 240,255 240,255" fill="none" stroke="#AAB8CC" stroke-width="0.9" opacity="0.55"/>
<path d="M660,255 C660,366 450,366 450,477" fill="none" stroke="#AAB8CC" stroke-width="0.9" opacity="0.55"/>
<path d="M135,255 C135,255 450,255 450,255" fill="none" stroke="#AAB8CC" stroke-width="0.9" opacity="0.55"/>
<path d="M765,255 C765,255 450,255 450,255" fill="none" stroke="#AAB8CC" stroke-width="0.9" opacity="0.55"/>
<path d="M765,255 C765,366 450,366 450,477" fill="none" stroke="#AAB8CC" stroke-width="0.9" opacity="0.55"/>
<path d="M450,255 C450,366 450,366 450,477" fill="none" stroke="#AAB8CC" stroke-width="0.9" opacity="0.55"/>
<path d="M810,477 C810,477 450,477 450,477" fill="none" stroke="#AAB8CC" stroke-width="0.9" opacity="0.55"/>
<path d="M330,477 C330,514 450,514 450,551" fill="none" stroke="#AAB8CC" stroke-width="0.9" opacity="0.55"/>
<path d="M330,477 C330,477 210,477 210,477" fill="none" stroke="#AAB8CC" stroke-width="0.9" opacity="0.55"/>
<path d="M330,477 C330,477 450,477 450,477" fill="none" stroke="#AAB8CC" stroke-width="0.9" opacity="0.55"/>
<path d="M330,403 C330,403 570,403 570,403" fill="none" stroke="#AAB8CC" stroke-width="0.9" opacity="0.55"/>
<path d="M570,403 C570,403 690,403 690,403" fill="none" stroke="#AAB8CC" stroke-width="0.9" opacity="0.55"/>
<path d="M570,477 C570,440 330,440 330,403" fill="none" stroke="#AAB8CC" stroke-width="0.9" opacity="0.55"/>
<path d="M570,477 C570,440 570,440 570,403" fill="none" stroke="#AAB8CC" stroke-width="0.9" opacity="0.55"/>
<path d="M570,477 C570,440 210,440 210,403" fill="none" stroke="#AAB8CC" stroke-width="0.9" opacity="0.55"/>
<path d="M570,477 C570,440 450,440 450,403" fill="none" stroke="#AAB8CC" stroke-width="0.9" opacity="0.55"/>
<path d="M357,551 C357,477 570,477 570,403" fill="none" stroke="#AAB8CC" stroke-width="0.9" opacity="0.55"/>
<path d="M357,551 C357,551 543,551 543,551" fill="none" stroke="#AAB8CC" stroke-width="0.9" opacity="0.55"/>
<path d="M263,551 C263,551 450,551 450,551" fill="none" stroke="#AAB8CC" stroke-width="0.9" opacity="0.55"/>
<path d="M263,551 C263,551 543,551 543,551" fill="none" stroke="#AAB8CC" stroke-width="0.9" opacity="0.55"/>
<path d="M637,551 C637,477 570,477 570,403" fill="none" stroke="#AAB8CC" stroke-width="0.9" opacity="0.55"/>
<path d="M637,551 C637,551 450,551 450,551" fill="none" stroke="#AAB8CC" stroke-width="0.9" opacity="0.55"/>
<path d="M637,551 C637,551 543,551 543,551" fill="none" stroke="#AAB8CC" stroke-width="0.9" opacity="0.55"/>
<path d="M637,551 C637,514 450,514 450,477" fill="none" stroke="#AAB8CC" stroke-width="0.9" opacity="0.55"/>
<path d="M637,551 C637,514 690,514 690,477" fill="none" stroke="#AAB8CC" stroke-width="0.9" opacity="0.55"/>
<path d="M730,551 C730,477 570,477 570,403" fill="none" stroke="#AAB8CC" stroke-width="0.9" opacity="0.55"/>
<path d="M730,551 C730,551 450,551 450,551" fill="none" stroke="#AAB8CC" stroke-width="0.9" opacity="0.55"/>
<path d="M730,551 C730,551 543,551 543,551" fill="none" stroke="#AAB8CC" stroke-width="0.9" opacity="0.55"/>
<path d="M170,551 C170,551 543,551 543,551" fill="none" stroke="#AAB8CC" stroke-width="0.9" opacity="0.55"/>
<path d="M170,551 C170,514 450,514 450,477" fill="none" stroke="#AAB8CC" stroke-width="0.9" opacity="0.55"/>
<path d="M823,551 C823,551 543,551 543,551" fill="none" stroke="#AAB8CC" stroke-width="0.9" opacity="0.55"/>
<path d="M823,551 C823,514 450,514 450,477" fill="none" stroke="#AAB8CC" stroke-width="0.9" opacity="0.55"/>
<path d="M823,551 C823,514 690,514 690,477" fill="none" stroke="#AAB8CC" stroke-width="0.9" opacity="0.55"/>
<path d="M450,403 C450,403 810,403 810,403" fill="none" stroke="#AAB8CC" stroke-width="0.9" opacity="0.55"/>
<circle cx="330" cy="181" r="8.7" fill="#B57209" stroke="#fff" stroke-width="1.2"/>
<circle cx="690" cy="181" r="6.4" fill="#B57209" stroke="#fff" stroke-width="1.2"/>
<circle cx="450" cy="329" r="4.6" fill="#6247C4" stroke="#fff" stroke-width="1.2"/>
<circle cx="170" cy="551" r="9.4" fill="#0E7490" stroke="#fff" stroke-width="1.2"/>
<circle cx="570" cy="329" r="3.8" fill="#6247C4" stroke="#fff" stroke-width="1.2"/>
<circle cx="450" cy="107" r="6.8" fill="#2F6BE0" stroke="#fff" stroke-width="1.2"/>
<circle cx="330" cy="329" r="4.1" fill="#6247C4" stroke="#fff" stroke-width="1.2"/>
<circle cx="690" cy="329" r="4.0" fill="#6247C4" stroke="#fff" stroke-width="1.2"/>
<circle cx="210" cy="181" r="10.0" fill="#B57209" stroke="#fff" stroke-width="1.2"/>
<circle cx="210" cy="329" r="3.9" fill="#6247C4" stroke="#fff" stroke-width="1.2"/>
<circle cx="823" cy="551" r="7.5" fill="#0E7490" stroke="#fff" stroke-width="1.2"/>
<circle cx="450" cy="625" r="6.0" fill="#4D7C0F" stroke="#fff" stroke-width="1.2"/>
<circle cx="810" cy="329" r="4.0" fill="#6247C4" stroke="#fff" stroke-width="1.2"/>
<circle cx="810" cy="181" r="9.0" fill="#B57209" stroke="#fff" stroke-width="1.2"/>
<circle cx="450" cy="181" r="9.3" fill="#B57209" stroke="#fff" stroke-width="1.2"/>
<circle cx="555" cy="255" r="8.4" fill="#0E8F5D" stroke="#fff" stroke-width="1.2"/>
<circle cx="345" cy="255" r="9.2" fill="#0E8F5D" stroke="#fff" stroke-width="1.2"/>
<circle cx="570" cy="181" r="9.7" fill="#B57209" stroke="#fff" stroke-width="1.2"/>
<circle cx="810" cy="477" r="9.3" fill="#C2410C" stroke="#fff" stroke-width="1.2"/>
<circle cx="660" cy="255" r="8.4" fill="#0E8F5D" stroke="#fff" stroke-width="1.2"/>
<circle cx="240" cy="255" r="8.4" fill="#0E8F5D" stroke="#fff" stroke-width="1.2"/>
<circle cx="765" cy="255" r="7.3" fill="#0E8F5D" stroke="#fff" stroke-width="1.2"/>
<circle cx="810" cy="403" r="7.2" fill="#BE185D" stroke="#fff" stroke-width="1.2"/>
<circle cx="135" cy="255" r="9.1" fill="#0E8F5D" stroke="#fff" stroke-width="1.2"/>
<circle cx="210" cy="477" r="6.6" fill="#C2410C" stroke="#fff" stroke-width="1.2"/>
<circle cx="210" cy="403" r="4.1" fill="#BE185D" stroke="#fff" stroke-width="1.2"/>
<circle cx="730" cy="551" r="5.8" fill="#0E7490" stroke="#fff" stroke-width="1.2"/>
<circle cx="330" cy="477" r="6.7" fill="#C2410C" stroke="#fff" stroke-width="1.2"/>
<circle cx="690" cy="477" r="6.0" fill="#C2410C" stroke="#fff" stroke-width="1.2"/>
<circle cx="690" cy="403" r="5.7" fill="#BE185D" stroke="#fff" stroke-width="1.2"/>
<circle cx="637" cy="551" r="7.3" fill="#0E7490" stroke="#fff" stroke-width="1.2"/>
<circle cx="263" cy="551" r="5.9" fill="#0E7490" stroke="#fff" stroke-width="1.2"/>
<circle cx="330" cy="403" r="5.7" fill="#BE185D" stroke="#fff" stroke-width="1.2"/>
<circle cx="357" cy="551" r="6.9" fill="#0E7490" stroke="#fff" stroke-width="1.2"/>
<circle cx="543" cy="551" r="4.2" fill="#0E7490" stroke="#fff" stroke-width="1.2"/>
<circle cx="450" cy="255" r="4.1" fill="#0E8F5D" stroke="#fff" stroke-width="1.2"/>
<circle cx="450" cy="551" r="3.2" fill="#0E7490" stroke="#fff" stroke-width="1.2"/>
<circle cx="570" cy="403" r="4.7" fill="#BE185D" stroke="#fff" stroke-width="1.2"/>
<circle cx="570" cy="477" r="8.2" fill="#C2410C" stroke="#fff" stroke-width="1.2"/>
<circle cx="450" cy="403" r="7.2" fill="#BE185D" stroke="#fff" stroke-width="1.2"/>
<circle cx="450" cy="477" r="6.2" fill="#C2410C" stroke="#fff" stroke-width="1.2"/>
<text class="hub" x="690" y="392" text-anchor="middle" stroke="#fff" stroke-width="3.5" paint-order="stroke">session</text>
<text class="hub" x="210" y="394" text-anchor="middle" stroke="#fff" stroke-width="3.5" paint-order="stroke">client-ip</text>
<text class="hub" x="543" y="542" text-anchor="middle" stroke="#fff" stroke-width="3.5" paint-order="stroke">db/client</text>
<text class="hub" x="450" y="466" text-anchor="middle" stroke="#fff" stroke-width="3.5" paint-order="stroke">types</text>
<text class="hub" x="450" y="543" text-anchor="middle" stroke="#fff" stroke-width="3.5" paint-order="stroke">db/billboards</text>
<text class="hub" x="450" y="95" text-anchor="middle" stroke="#fff" stroke-width="3.5" paint-order="stroke">proxy.ts</text>
<text class="hub" x="450" y="246" text-anchor="middle" stroke="#fff" stroke-width="3.5" paint-order="stroke">admin/constants</text>
</svg>
